<svg xmlns="http://www.w3.org/2000/svg" aria-hidden="true" style="position:absolute;width:0;height:0;overflow:hidden">
  <defs>
    <symbol id="icon-arrow" viewBox="0 0 32 32">
      <path stroke-linecap="round" stroke-linejoin="round" stroke-width="2.909" d="m8 12 8 8 8-8" />
    </symbol>
    <symbol id="icon-location" viewBox="0 0 32 32">
      <path
        d="M16 4.444c-3.966 0-7.18 3.232-7.18 7.222 0 6.897 7.18 15.889 7.18 15.889s7.18-8.992 7.18-15.889c0-3.99-3.214-7.222-7.18-7.222zm0 10.725c-1.878 0-3.394-1.529-3.394-3.412S14.129 8.338 16 8.338c1.878 0 3.394 1.529 3.394 3.419A3.402 3.402 0 0 1 16 15.169z" />
    </symbol>
    <symbol id="icon-logo" viewBox="0 0 121 32">
      <path fill="#1d1d1f" d="M31.578.302H6.203C2.972.302.352 2.936.352 6.184v25.514L31.578.302z"
        style="fill:var(--color1, #1d1d1f)" />
      <path fill="#c0e278"
        d="M.465 31.698h25.194c3.208 0 5.808-2.614 5.808-5.84V.527L.465 31.698zM42.735 25.992l2.073-5.738h-3.947L35.692 5.979h4.203l3.776 10.449h2.499l3.776-10.449h4.174l-7.183 20.013h-4.204zM67.865 21.842c2.586-1.246 4.033-3.431 4.098-5.87l3.79-1.826c.826 4.573-1.634 8.924-6.242 11.145-5.608 2.703-11.748.723-14.301-4.632-2.59-5.432-.293-11.447 5.341-14.161 4.609-2.221 9.498-1.411 12.551 2.088l-3.789 1.826c-1.918-1.514-4.506-1.723-7.118-.464-3.661 1.764-5.094 5.431-3.401 8.984 1.658 3.475 5.435 4.662 9.071 2.91zM85.009 6.007h4.429l10.024 19.985h-4.43l-2.357-4.71H81.8l-2.357 4.71h-4.401l9.967-19.985zm5.821 11.62-3.606-7.194-3.606 7.194h7.211zM120.219 6.008v19.984h-3.975V9.691h-11.471v16.301h-3.975V6.008h19.422z"
        style="fill:var(--color2, #c0e278)" />
      <path fill="#c0e278"
        d="M68.214 3.919h-6.586v3.203h6.586V3.919zM63.787 19.607c0-.6-.483-1.086-1.08-1.086s-1.079.486-1.079 1.086c0 .599.483 1.086 1.079 1.086s1.08-.486 1.08-1.086zM68.591 17.725c0-.356-.288-.645-.642-.645a.645.645 0 0 0 0 1.29.644.644 0 0 0 .642-.645zM68.271 21.884c0-.9-.726-1.629-1.621-1.629-.894 0-1.619.729-1.619 1.629s.725 1.63 1.619 1.63c.895 0 1.621-.73 1.621-1.63zM65.917 18.862c0-.215-.173-.389-.386-.389a.388.388 0 0 0 0 .777.387.387 0 0 0 .386-.388zM70.241 18.909c0-.214-.173-.389-.387-.389s-.386.175-.386.389c0 .215.173.389.386.389s.387-.174.387-.389z"
        style="fill:var(--color2, #c0e278)" />
    </symbol>
    <symbol id="icon-mail" viewBox="0 0 45 32">
      <path
        d="M1.6 4.632v23.556c0 1.282.938 2.32 2.23 2.32h36.764c1.291 0 2.23-1.051 2.23-2.32V4.632c0-1.406-.84-2.499-2.23-2.499H3.83c-1.444 0-2.23 1.119-2.23 2.499zm3.39 2.052c0-.568.344-.892.892-.892.34 0 13.698 8.465 14.508 8.961l2.091 1.3c.663-.444 1.328-.824 2.016-1.284 1.402-.896 13.88-8.978 14.223-8.978.55 0 .892.325.892.892 0 .601-1.158 1.198-1.912 1.659-4.739 2.888-9.476 6.036-14.167 9.031-.274.185-.804.581-1.201.521-.443-.068-14.037-8.802-16.51-10.256-.372-.219-.832-.419-.832-.954z" />
    </symbol>
    <symbol id="icon-phone" viewBox="0 0 32 32">
      <path
        d="M25.624 20.785c-.879-.903-3.376-2.594-5.013-2.594-.379 0-.71.084-.981.259-.801.511-1.439.909-1.745.909-.169 0-.349-.151-.746-.494l-.066-.06c-1.101-.957-1.336-1.204-1.763-1.649l-.108-.114c-.078-.078-.144-.15-.211-.217-.373-.385-.644-.662-1.601-1.745l-.042-.048c-.457-.518-.758-.855-.776-1.101-.018-.241.193-.632.728-1.36.65-.879.674-1.962.078-3.22-.475-.993-1.252-1.944-1.938-2.781l-.06-.072c-.59-.722-1.276-1.083-2.04-1.083-.849 0-1.553.457-1.926.698-.03.018-.06.042-.09.06-.837.53-1.444 1.258-1.673 1.998-.343 1.113-.572 2.558 1.071 5.561 1.42 2.6 2.708 4.345 4.755 6.446 1.926 1.974 2.781 2.612 4.694 3.996 2.131 1.541 4.177 2.425 5.609 2.425 1.33 0 2.377 0 3.87-1.799 1.565-1.89.915-3.045-.024-4.014z" />
    </symbol>
    <symbol id="icon-search" viewBox="0 0 32 32">
      <path
        d="M24 13.333A10.668 10.668 0 0 0 8.766 3.675 10.662 10.662 0 0 0 2.913 15.59a10.663 10.663 0 0 0 16.954 6.156l8.533 8.533 1.88-1.88-8.533-8.533A10.666 10.666 0 0 0 24 13.333zm-10.667 8a8.003 8.003 0 0 1-7.391-4.938 8.007 8.007 0 0 1 1.734-8.718c1.119-1.119 2.544-1.881 4.096-2.189s3.16-.15 4.622.455a7.998 7.998 0 0 1 2.595 13.048 8 8 0 0 1-5.657 2.343z" />
    </symbol>
    <symbol id="icon-menu" viewBox="0 0 37 32">
      <path stroke-linecap="round" stroke-width="3.368" d="M1.684 2.526h33.684M1.684 16h33.684M1.684 29.474h33.684" />
    </symbol>
    <symbol id="icon-close" viewBox="0 0 30 32">
      <path stroke-linecap="round" stroke-width="1.6" d="m.8 1.6 28.539 28.028M.8 30.4 29.339 2.372" />
    </symbol>
  </defs>
</svg>